%FSLAX45Y45*%
G04 Gerber Fmt 4.5, Leading zero omitted, Abs format (unit mm)*
G04 Created by KiCad (PCBNEW (6.0.0)) date 2023-02-08 23:36:18*
%MOMM*%
%LPD*%
G01*
G04 APERTURE LIST*
%TA.AperFunction,Profile*%
%ADD10C,0.100000*%
%TD*%
%ADD11C,0.200000*%
G04 APERTURE END LIST*
D10*
X12344000Y-8861000D02*
G75*
G03*
X12339000Y-8856000I-5000J0D01*
G01*
X7134000Y-12156000D02*
X7134000Y-10766000D01*
X19959000Y-6446000D02*
X18569000Y-6446000D01*
X6624000Y-8351000D02*
X5234000Y-8351000D01*
X18564000Y-6441000D02*
G75*
G03*
X18569000Y-6446000I5000J0D01*
G01*
X10439000Y-8861000D02*
G75*
G03*
X10434000Y-8856000I-5000J0D01*
G01*
X13370000Y-10661735D02*
X13609898Y-10661735D01*
X12339000Y-8351000D02*
X10949000Y-8351000D01*
X20469000Y-10251000D02*
X20469000Y-8861000D01*
X22268208Y-12755486D02*
X22268208Y-13109040D01*
X19959000Y-8351000D02*
G75*
G03*
X19964000Y-8346000I0J5000D01*
G01*
X20474000Y-5046000D02*
X21864000Y-5046000D01*
X22379000Y-8856000D02*
X23769000Y-8856000D01*
X19959000Y-12161000D02*
X18569000Y-12161000D01*
X8529000Y-10256000D02*
X7139000Y-10256000D01*
X12849000Y-10251000D02*
X12849000Y-8861000D01*
X7139000Y-5046000D02*
G75*
G03*
X7134000Y-5051000I0J-5000D01*
G01*
X10439000Y-6956000D02*
X10439000Y-8346000D01*
X22500959Y-4419755D02*
X22534224Y-4502062D01*
X22006669Y-4487100D02*
G75*
G03*
X22206669Y-4487100I100000J0D01*
G01*
X10434000Y-10256000D02*
G75*
G03*
X10439000Y-10251000I0J5000D01*
G01*
X16659000Y-8346000D02*
X16659000Y-6956000D01*
X10944000Y-8346000D02*
G75*
G03*
X10949000Y-8351000I5000J0D01*
G01*
X20469000Y-8346000D02*
X20469000Y-6956000D01*
X6445428Y-12682278D02*
X6382022Y-12566118D01*
X22616557Y-12664534D02*
X22685588Y-12567276D01*
X6624000Y-12161000D02*
G75*
G03*
X6629000Y-12156000I0J5000D01*
G01*
X6279856Y-12477054D02*
X6143251Y-12412064D01*
X6629000Y-8861000D02*
X6629000Y-10251000D01*
X18059000Y-6956000D02*
G75*
G03*
X18054000Y-6951000I-5000J0D01*
G01*
X16664000Y-6951000D02*
G75*
G03*
X16659000Y-6956000I0J-5000D01*
G01*
X21707104Y-4468455D02*
X21680358Y-4553888D01*
X23769000Y-8351000D02*
G75*
G03*
X23774000Y-8346000I0J5000D01*
G01*
X14754000Y-12156000D02*
G75*
G03*
X14759000Y-12161000I5000J0D01*
G01*
X7134000Y-6441000D02*
X7134000Y-5051000D01*
X14759000Y-5046000D02*
G75*
G03*
X14754000Y-5051000I0J-5000D01*
G01*
X20469000Y-12156000D02*
G75*
G03*
X20474000Y-12161000I5000J0D01*
G01*
X21864000Y-6446000D02*
X20474000Y-6446000D01*
X22567774Y-12774122D02*
X22616557Y-12664534D01*
X5234000Y-6951000D02*
G75*
G03*
X5229000Y-6956000I0J-5000D01*
G01*
X6968208Y-12755486D02*
X6968208Y-13109039D01*
X14244000Y-6446000D02*
X12854000Y-6446000D01*
X23769000Y-10256000D02*
G75*
G03*
X23774000Y-10251000I0J5000D01*
G01*
X6624000Y-10256000D02*
G75*
G03*
X6629000Y-10251000I0J5000D01*
G01*
X10439000Y-5051000D02*
G75*
G03*
X10434000Y-5046000I-5000J0D01*
G01*
X23769000Y-8351000D02*
X22379000Y-8351000D01*
X9039000Y-12156000D02*
G75*
G03*
X9044000Y-12161000I5000J0D01*
G01*
X16664000Y-6951000D02*
X18054000Y-6951000D01*
X22301541Y-13132610D02*
G75*
G03*
X22567774Y-12774122I-133333J377124D01*
G01*
X6624000Y-12161000D02*
X5234000Y-12161000D01*
X21869000Y-6956000D02*
X21869000Y-8346000D01*
X7139000Y-6951000D02*
X8529000Y-6951000D01*
X9039000Y-6441000D02*
X9039000Y-5051000D01*
X6626671Y-5050307D02*
X6626671Y-6440306D01*
X16664000Y-8856000D02*
X18054000Y-8856000D01*
X14248985Y-10766741D02*
G75*
G03*
X14243985Y-10761741I-5000J0D01*
G01*
X19959000Y-6446000D02*
G75*
G03*
X19964000Y-6441000I0J5000D01*
G01*
X16154000Y-6956000D02*
X16154000Y-8346000D01*
X19964000Y-8861000D02*
X19964000Y-10251000D01*
X18564000Y-12156000D02*
G75*
G03*
X18569000Y-12161000I5000J0D01*
G01*
X18054000Y-10256000D02*
X16664000Y-10256000D01*
X5001376Y-4792064D02*
G75*
G03*
X4976376Y-4817064I0J-25000D01*
G01*
X12339000Y-6446000D02*
X10949000Y-6446000D01*
X16664000Y-12161000D02*
X14759000Y-12161000D01*
X7139000Y-8856000D02*
G75*
G03*
X7134000Y-8861000I0J-5000D01*
G01*
X20474000Y-8856000D02*
G75*
G03*
X20469000Y-8861000I0J-5000D01*
G01*
X21869000Y-8861000D02*
G75*
G03*
X21864000Y-8856000I-5000J0D01*
G01*
X9039000Y-8346000D02*
X9039000Y-6956000D01*
X9044000Y-10761000D02*
G75*
G03*
X9039000Y-10766000I0J-5000D01*
G01*
X6190002Y-4109976D02*
G75*
G03*
X6156669Y-4133546I-8333J-23570D01*
G01*
X5226671Y-6440306D02*
X5226671Y-5050307D01*
X12849000Y-10251000D02*
G75*
G03*
X12854000Y-10256000I5000J0D01*
G01*
X20474000Y-5046000D02*
G75*
G03*
X20469000Y-5051000I0J-5000D01*
G01*
X6473920Y-12822845D02*
X6445428Y-12682278D01*
X21578872Y-12478477D02*
X21443251Y-12412064D01*
X6629000Y-10766000D02*
X6629000Y-12156000D01*
X8534000Y-8861000D02*
G75*
G03*
X8529000Y-8856000I-5000J0D01*
G01*
X22702839Y-4688700D02*
X22833712Y-4792064D01*
X16659000Y-10251000D02*
G75*
G03*
X16664000Y-10256000I5000J0D01*
G01*
X17952498Y-10711735D02*
X17952498Y-10761735D01*
X9044000Y-8856000D02*
G75*
G03*
X9039000Y-8861000I0J-5000D01*
G01*
X23769000Y-10256000D02*
X22379000Y-10256000D01*
X14142498Y-10711735D02*
G75*
G03*
X14092498Y-10661735I-50000J0D01*
G01*
X14754000Y-12156000D02*
X14753982Y-10766717D01*
X22374000Y-10251000D02*
X22374000Y-8861000D01*
X23774000Y-6956000D02*
X23774000Y-8346000D01*
X18054000Y-12161000D02*
G75*
G03*
X18059000Y-12156000I0J5000D01*
G01*
X14248985Y-10766741D02*
X14249000Y-12156000D01*
X22268208Y-12755486D02*
G75*
G03*
X22068208Y-12755496I-100000J0D01*
G01*
X12344000Y-6956000D02*
X12344000Y-8346000D01*
X14249000Y-6956000D02*
X14249000Y-8346000D01*
X5567438Y-4636293D02*
X5466569Y-4715519D01*
X10434000Y-12161000D02*
X9044000Y-12161000D01*
X12854000Y-6951000D02*
X14244000Y-6951000D01*
X21973336Y-4109976D02*
G75*
G03*
X21707103Y-4468467I133333J-377124D01*
G01*
X12339000Y-10256000D02*
G75*
G03*
X12344000Y-10251000I0J5000D01*
G01*
X21773918Y-12822834D02*
X21744467Y-12683683D01*
X6629000Y-6956000D02*
X6629000Y-8346000D01*
X5229000Y-8346000D02*
X5229000Y-6956000D01*
X6652839Y-4688700D02*
X6783712Y-4792064D01*
X8534000Y-10766000D02*
G75*
G03*
X8529000Y-10761000I-5000J0D01*
G01*
X11104898Y-10661735D02*
X11827400Y-10661735D01*
X10949000Y-5046000D02*
X12339000Y-5046000D01*
X6621671Y-6445306D02*
G75*
G03*
X6626671Y-6440306I0J5000D01*
G01*
X12854000Y-12161000D02*
X10949000Y-12161000D01*
X16664000Y-8856000D02*
G75*
G03*
X16659000Y-8861000I0J-5000D01*
G01*
X18569000Y-6951000D02*
X19959000Y-6951000D01*
X21869000Y-5051000D02*
G75*
G03*
X21864000Y-5046000I-5000J0D01*
G01*
X22034874Y-13132610D02*
G75*
G03*
X22068208Y-13109039I8333J23570D01*
G01*
X8529000Y-6446000D02*
X7139000Y-6446000D01*
X18564000Y-12156000D02*
X18564000Y-10766000D01*
X12339000Y-6446000D02*
G75*
G03*
X12344000Y-6441000I0J5000D01*
G01*
X23774000Y-8861000D02*
X23774000Y-10251000D01*
X22534224Y-4502062D02*
X22601099Y-4591620D01*
X21869372Y-10766000D02*
G75*
G03*
X21864372Y-10761000I-5000J0D01*
G01*
X18054000Y-6446000D02*
G75*
G03*
X18059000Y-6441000I0J5000D01*
G01*
X18059000Y-5051000D02*
G75*
G03*
X18054000Y-5046000I-5000J0D01*
G01*
X21864000Y-8351000D02*
X20474000Y-8351000D01*
X14759000Y-6951000D02*
G75*
G03*
X14754000Y-6956000I0J-5000D01*
G01*
X19959000Y-10256000D02*
X18569000Y-10256000D01*
X19964000Y-5051000D02*
G75*
G03*
X19959000Y-5046000I-5000J0D01*
G01*
X22379000Y-8856000D02*
G75*
G03*
X22374000Y-8861000I0J-5000D01*
G01*
X7139000Y-10761000D02*
X8529000Y-10761000D01*
X18054000Y-6446000D02*
X16664000Y-6446000D01*
X12849000Y-6441000D02*
X12849000Y-5051000D01*
X12854000Y-8856000D02*
G75*
G03*
X12849000Y-8861000I0J-5000D01*
G01*
X8534000Y-6956000D02*
G75*
G03*
X8529000Y-6951000I-5000J0D01*
G01*
X14244000Y-10256000D02*
X12854000Y-10256000D01*
X18054000Y-10256000D02*
G75*
G03*
X18059000Y-10251000I0J5000D01*
G01*
X18054000Y-12161000D02*
X16664000Y-12161000D01*
X10434000Y-6446000D02*
G75*
G03*
X10439000Y-6441000I0J5000D01*
G01*
X14759000Y-8856000D02*
G75*
G03*
X14754000Y-8861000I0J-5000D01*
G01*
X17419898Y-10661735D02*
X17902498Y-10661735D01*
X23774000Y-10766000D02*
G75*
G03*
X23769000Y-10761000I-5000J0D01*
G01*
X21864000Y-10256000D02*
X20474000Y-10256000D01*
X18059000Y-8861000D02*
X18059000Y-10251000D01*
X16149000Y-10256000D02*
X14759000Y-10256000D01*
X16154000Y-8861000D02*
X16154000Y-10251000D01*
X5466569Y-4715519D02*
X5333683Y-4792064D01*
X21773918Y-12822834D02*
G75*
G03*
X22034874Y-13132610I394290J67348D01*
G01*
X21680701Y-12568041D02*
X21578872Y-12478477D01*
X5229000Y-12156000D02*
X5229000Y-10766000D01*
X18564000Y-10251000D02*
X18564000Y-8861000D01*
X17180000Y-10661735D02*
G75*
G03*
X17130000Y-10711735I0J-50000D01*
G01*
X6624000Y-10256000D02*
X5234000Y-10256000D01*
X18569000Y-5046000D02*
X19959000Y-5046000D01*
X22379000Y-5046000D02*
G75*
G03*
X22374000Y-5051000I0J-5000D01*
G01*
X22006669Y-4487100D02*
X22006669Y-4133546D01*
X5001376Y-4792064D02*
X5333683Y-4792064D01*
X11054898Y-10761735D02*
X11054898Y-10711735D01*
X7139000Y-10761000D02*
G75*
G03*
X7134000Y-10766000I0J-5000D01*
G01*
X22833712Y-4792064D02*
X24001376Y-4792064D01*
X18569000Y-8856000D02*
X19959000Y-8856000D01*
X17952498Y-10761735D02*
X18053997Y-10761823D01*
X5956669Y-4133546D02*
G75*
G03*
X5923336Y-4109975I-25000J0D01*
G01*
X5956669Y-4487100D02*
X5956669Y-4133546D01*
X24001376Y-12412064D02*
G75*
G03*
X24026376Y-12387064I0J25000D01*
G01*
X22374000Y-12156000D02*
G75*
G03*
X22379000Y-12161000I5000J0D01*
G01*
X10439000Y-10766000D02*
X10439000Y-12156000D01*
X22374000Y-6441000D02*
G75*
G03*
X22379000Y-6446000I5000J0D01*
G01*
X14759000Y-8856000D02*
X16149000Y-8856000D01*
X8534000Y-10766000D02*
X8534000Y-12156000D01*
X20469000Y-8346000D02*
G75*
G03*
X20474000Y-8351000I5000J0D01*
G01*
X14249000Y-5051000D02*
X14249000Y-6441000D01*
X9044000Y-8856000D02*
X10434000Y-8856000D01*
X22068208Y-12755496D02*
X22068208Y-13109039D01*
X7139000Y-8856000D02*
X8529000Y-8856000D01*
X7134000Y-8346000D02*
X7134000Y-6956000D01*
X19964000Y-8861000D02*
G75*
G03*
X19959000Y-8856000I-5000J0D01*
G01*
X23769000Y-12161000D02*
X22379000Y-12161000D01*
X5234000Y-10761000D02*
X6624000Y-10761000D01*
X6629000Y-10766000D02*
G75*
G03*
X6624000Y-10761000I-5000J0D01*
G01*
X7134000Y-8346000D02*
G75*
G03*
X7139000Y-8351000I5000J0D01*
G01*
X10434000Y-8351000D02*
X9044000Y-8351000D01*
X6621671Y-6445306D02*
X5231671Y-6445306D01*
X21869000Y-6956000D02*
G75*
G03*
X21864000Y-6951000I-5000J0D01*
G01*
X6624000Y-8351000D02*
G75*
G03*
X6629000Y-8346000I0J5000D01*
G01*
X9039000Y-10251000D02*
G75*
G03*
X9044000Y-10256000I5000J0D01*
G01*
X10439000Y-6956000D02*
G75*
G03*
X10434000Y-6951000I-5000J0D01*
G01*
X20469000Y-12156000D02*
X20469000Y-10766000D01*
X20469000Y-6441000D02*
G75*
G03*
X20474000Y-6446000I5000J0D01*
G01*
X18569000Y-8856000D02*
G75*
G03*
X18564000Y-8861000I0J-5000D01*
G01*
X5234000Y-10761000D02*
G75*
G03*
X5229000Y-10766000I0J-5000D01*
G01*
X16149000Y-8351000D02*
X14759000Y-8351000D01*
X22374000Y-12156000D02*
X22374000Y-10766000D01*
X21864000Y-6446000D02*
G75*
G03*
X21869000Y-6441000I0J5000D01*
G01*
X8534000Y-5051000D02*
G75*
G03*
X8529000Y-5046000I-5000J0D01*
G01*
X18569000Y-6951000D02*
G75*
G03*
X18564000Y-6956000I0J-5000D01*
G01*
X4976376Y-12387064D02*
G75*
G03*
X5001376Y-12412064I25000J0D01*
G01*
X10434000Y-10256000D02*
X9044000Y-10256000D01*
X20469000Y-10251000D02*
G75*
G03*
X20474000Y-10256000I5000J0D01*
G01*
X17952498Y-10711735D02*
G75*
G03*
X17902498Y-10661735I-50000J0D01*
G01*
X9039000Y-6441000D02*
G75*
G03*
X9044000Y-6446000I5000J0D01*
G01*
X22374000Y-8346000D02*
X22374000Y-6956000D01*
X6626671Y-5050307D02*
G75*
G03*
X6621671Y-5045307I-5000J0D01*
G01*
X17180000Y-10661735D02*
X17419898Y-10661735D01*
X8529000Y-12161000D02*
G75*
G03*
X8534000Y-12156000I0J5000D01*
G01*
X21516569Y-4715519D02*
X21383683Y-4792064D01*
X21680358Y-4553888D02*
X21617438Y-4636293D01*
X6484224Y-4502062D02*
X6551099Y-4591620D01*
X6783712Y-4792064D02*
X21383683Y-4792064D01*
X18054000Y-8351000D02*
X16664000Y-8351000D01*
X21443251Y-12412064D02*
X7588191Y-12412064D01*
X22601099Y-4591620D02*
X22702839Y-4688700D01*
X10949000Y-6951000D02*
G75*
G03*
X10944000Y-6956000I0J-5000D01*
G01*
X23769000Y-12161000D02*
G75*
G03*
X23774000Y-12156000I0J5000D01*
G01*
X22500959Y-4419755D02*
G75*
G03*
X22240002Y-4109976I-394290J-67345D01*
G01*
X11104898Y-10661735D02*
G75*
G03*
X11054898Y-10711735I0J-50000D01*
G01*
X12339000Y-10256000D02*
X10949000Y-10256000D01*
X12849000Y-8346000D02*
G75*
G03*
X12854000Y-8351000I5000J0D01*
G01*
X12854000Y-6951000D02*
G75*
G03*
X12849000Y-6956000I0J-5000D01*
G01*
X21864000Y-10256000D02*
G75*
G03*
X21869000Y-10251000I0J5000D01*
G01*
X14249000Y-8861000D02*
X14249000Y-10251000D01*
X22374000Y-10251000D02*
G75*
G03*
X22379000Y-10256000I5000J0D01*
G01*
X23774000Y-6956000D02*
G75*
G03*
X23769000Y-6951000I-5000J0D01*
G01*
X10948982Y-10761725D02*
X11054898Y-10761735D01*
X5226671Y-6440306D02*
G75*
G03*
X5231671Y-6445306I5000J0D01*
G01*
X6156669Y-4487100D02*
X6156669Y-4133546D01*
X8534000Y-6956000D02*
X8534000Y-8346000D01*
X21869000Y-5051000D02*
X21869000Y-6441000D01*
X16154000Y-5051000D02*
G75*
G03*
X16149000Y-5046000I-5000J0D01*
G01*
X8529000Y-8351000D02*
G75*
G03*
X8534000Y-8346000I0J5000D01*
G01*
X9044000Y-5046000D02*
G75*
G03*
X9039000Y-5051000I0J-5000D01*
G01*
X16659000Y-6441000D02*
G75*
G03*
X16664000Y-6446000I5000J0D01*
G01*
X5231671Y-5045307D02*
G75*
G03*
X5226671Y-5050307I0J-5000D01*
G01*
X12344000Y-8861000D02*
X12344000Y-10251000D01*
X16149000Y-10256000D02*
G75*
G03*
X16154000Y-10251000I0J5000D01*
G01*
X10944000Y-12156000D02*
G75*
G03*
X10949000Y-12161000I5000J0D01*
G01*
X15687400Y-10711735D02*
X15687400Y-10761735D01*
X10948982Y-10761725D02*
G75*
G03*
X10943982Y-10766725I0J-5000D01*
G01*
X8534000Y-8861000D02*
X8534000Y-10251000D01*
X14249000Y-5051000D02*
G75*
G03*
X14244000Y-5046000I-5000J0D01*
G01*
X23774000Y-10766000D02*
X23774000Y-12156000D01*
X12344000Y-5051000D02*
X12344000Y-6441000D01*
X6450959Y-4419755D02*
X6484224Y-4502062D01*
X7139000Y-5046000D02*
X8529000Y-5046000D01*
X22206669Y-4487100D02*
X22206669Y-4133546D01*
X14754000Y-6441000D02*
X14754000Y-5051000D01*
X6629000Y-8861000D02*
G75*
G03*
X6624000Y-8856000I-5000J0D01*
G01*
X10434000Y-6446000D02*
X9044000Y-6446000D01*
X9044000Y-6951000D02*
X10434000Y-6951000D01*
X12854000Y-5046000D02*
G75*
G03*
X12849000Y-5051000I0J-5000D01*
G01*
X14914898Y-10661735D02*
G75*
G03*
X14864898Y-10711735I0J-50000D01*
G01*
X5657104Y-4468455D02*
X5630358Y-4553888D01*
X22379000Y-5046000D02*
X23769000Y-5046000D01*
X15687400Y-10761735D02*
X17130000Y-10761735D01*
X14244000Y-10256000D02*
G75*
G03*
X14249000Y-10251000I0J5000D01*
G01*
X21864000Y-12161000D02*
G75*
G03*
X21869000Y-12156000I0J5000D01*
G01*
X9044000Y-10761000D02*
X10434000Y-10761000D01*
X14758982Y-10761717D02*
X14864898Y-10761735D01*
X16149000Y-8351000D02*
G75*
G03*
X16154000Y-8346000I0J5000D01*
G01*
X22006669Y-4133546D02*
G75*
G03*
X21973336Y-4109976I-25000J0D01*
G01*
X19959000Y-12161000D02*
G75*
G03*
X19964000Y-12156000I0J5000D01*
G01*
X12344000Y-5051000D02*
G75*
G03*
X12339000Y-5046000I-5000J0D01*
G01*
X7134000Y-10251000D02*
X7134000Y-8861000D01*
X14754000Y-10251000D02*
X14754000Y-8861000D01*
X17130000Y-10761735D02*
X17130000Y-10711735D01*
X19959000Y-10256000D02*
G75*
G03*
X19964000Y-10251000I0J5000D01*
G01*
X5229000Y-10251000D02*
G75*
G03*
X5234000Y-10256000I5000J0D01*
G01*
X21869000Y-8861000D02*
X21869000Y-10251000D01*
X7001541Y-13132610D02*
G75*
G03*
X7267773Y-12774133I-133333J377124D01*
G01*
X7134000Y-10251000D02*
G75*
G03*
X7139000Y-10256000I5000J0D01*
G01*
X14244000Y-8351000D02*
X12854000Y-8351000D01*
X13320000Y-10761735D02*
X13320000Y-10711735D01*
X21617438Y-4636293D02*
X21516569Y-4715519D01*
X6768208Y-12755488D02*
X6768208Y-13109039D01*
X7134000Y-12156000D02*
G75*
G03*
X7139000Y-12161000I5000J0D01*
G01*
X16659000Y-6441000D02*
X16659000Y-5051000D01*
X22776993Y-12483644D02*
X22888191Y-12412064D01*
X9044000Y-6951000D02*
G75*
G03*
X9039000Y-6956000I0J-5000D01*
G01*
X5229000Y-12156000D02*
G75*
G03*
X5234000Y-12161000I5000J0D01*
G01*
X11877400Y-10711735D02*
G75*
G03*
X11827400Y-10661735I-50000J0D01*
G01*
X10944000Y-6441000D02*
G75*
G03*
X10949000Y-6446000I5000J0D01*
G01*
X23774000Y-5051000D02*
X23774000Y-6441000D01*
X14754000Y-6441000D02*
G75*
G03*
X14759000Y-6446000I5000J0D01*
G01*
X9044000Y-5046000D02*
X10434000Y-5046000D01*
X6382022Y-12566118D02*
X6279856Y-12477054D01*
X18059000Y-5051000D02*
X18059000Y-6441000D01*
X14249000Y-8861000D02*
G75*
G03*
X14244000Y-8856000I-5000J0D01*
G01*
X20474000Y-6951000D02*
X21864000Y-6951000D01*
X24001376Y-12412064D02*
X22888191Y-12412064D01*
X14754000Y-8346000D02*
X14754000Y-6956000D01*
X19964000Y-5051000D02*
X19964000Y-6441000D01*
X23769000Y-6446000D02*
G75*
G03*
X23774000Y-6441000I0J5000D01*
G01*
X19959000Y-8351000D02*
X18569000Y-8351000D01*
X14243985Y-10761741D02*
X14142498Y-10761735D01*
X19964000Y-6956000D02*
G75*
G03*
X19959000Y-6951000I-5000J0D01*
G01*
X14244000Y-12161000D02*
X12854000Y-12161000D01*
X14249000Y-6956000D02*
G75*
G03*
X14244000Y-6951000I-5000J0D01*
G01*
X18564000Y-6441000D02*
X18564000Y-5051000D01*
X22379000Y-10761000D02*
G75*
G03*
X22374000Y-10766000I0J-5000D01*
G01*
X7267773Y-12774133D02*
X7282933Y-12657328D01*
X13370000Y-10661735D02*
G75*
G03*
X13320000Y-10711735I0J-50000D01*
G01*
X8529000Y-12161000D02*
X7139000Y-12161000D01*
X14864898Y-10761735D02*
X14864898Y-10711735D01*
X19964000Y-6956000D02*
X19964000Y-8346000D01*
X5630358Y-4553888D02*
X5567438Y-4636293D01*
X16659000Y-10251000D02*
X16659000Y-8861000D01*
X6629000Y-6956000D02*
G75*
G03*
X6624000Y-6951000I-5000J0D01*
G01*
X10944000Y-10251000D02*
X10944000Y-8861000D01*
X18569000Y-10761000D02*
G75*
G03*
X18564000Y-10766000I0J-5000D01*
G01*
X20474000Y-8856000D02*
X21864000Y-8856000D01*
X10944000Y-10251000D02*
G75*
G03*
X10949000Y-10256000I5000J0D01*
G01*
X10944000Y-6441000D02*
X10944000Y-5051000D01*
X12344000Y-6956000D02*
G75*
G03*
X12339000Y-6951000I-5000J0D01*
G01*
X10439000Y-5051000D02*
X10439000Y-6441000D01*
X18058997Y-10766823D02*
G75*
G03*
X18053997Y-10761823I-5000J0D01*
G01*
X15687400Y-10711735D02*
G75*
G03*
X15637400Y-10661735I-50000J0D01*
G01*
X14244000Y-12161000D02*
G75*
G03*
X14249000Y-12156000I0J5000D01*
G01*
X5923336Y-4109975D02*
G75*
G03*
X5657102Y-4468467I133333J-377124D01*
G01*
X11877400Y-10711735D02*
X11877400Y-10761735D01*
X18564000Y-8346000D02*
X18564000Y-6956000D01*
X10949000Y-6951000D02*
X12339000Y-6951000D01*
X4976376Y-12387064D02*
X4976376Y-4817064D01*
X18569000Y-5046000D02*
G75*
G03*
X18564000Y-5051000I0J-5000D01*
G01*
X16149000Y-6446000D02*
X14759000Y-6446000D01*
X7340795Y-12557808D02*
X7444642Y-12476901D01*
X22268208Y-13109040D02*
G75*
G03*
X22301541Y-13132610I25000J0D01*
G01*
X14754000Y-8346000D02*
G75*
G03*
X14759000Y-8351000I5000J0D01*
G01*
X23774000Y-8861000D02*
G75*
G03*
X23769000Y-8856000I-5000J0D01*
G01*
X18059000Y-8861000D02*
G75*
G03*
X18054000Y-8856000I-5000J0D01*
G01*
X16664000Y-5046000D02*
X18054000Y-5046000D01*
X21869372Y-10766000D02*
X21869000Y-12156000D01*
X12854000Y-5046000D02*
X14244000Y-5046000D01*
X10949000Y-8856000D02*
X12339000Y-8856000D01*
X24026376Y-4817064D02*
G75*
G03*
X24001376Y-4792064I-25000J0D01*
G01*
X6734874Y-13132610D02*
G75*
G03*
X6768208Y-13109039I8333J23570D01*
G01*
X19964000Y-10766000D02*
X19964000Y-12156000D01*
X14244000Y-6446000D02*
G75*
G03*
X14249000Y-6441000I0J5000D01*
G01*
X22240002Y-4109976D02*
G75*
G03*
X22206669Y-4133546I-8333J-23570D01*
G01*
X6968208Y-12755486D02*
G75*
G03*
X6768208Y-12755488I-100000J0D01*
G01*
X14759000Y-6951000D02*
X16149000Y-6951000D01*
X18059000Y-6956000D02*
X18059000Y-8346000D01*
X16154000Y-8861000D02*
G75*
G03*
X16149000Y-8856000I-5000J0D01*
G01*
X11877400Y-10761735D02*
X13320000Y-10761735D01*
X7134000Y-6441000D02*
G75*
G03*
X7139000Y-6446000I5000J0D01*
G01*
X7444642Y-12476901D02*
X7588191Y-12412064D01*
X8529000Y-8351000D02*
X7139000Y-8351000D01*
X5231671Y-5045307D02*
X6621671Y-5045307D01*
X23769000Y-6446000D02*
X22379000Y-6446000D01*
X20474000Y-10761000D02*
X21864372Y-10761000D01*
X6473920Y-12822845D02*
G75*
G03*
X6734874Y-13132610I394288J67359D01*
G01*
X12339000Y-8351000D02*
G75*
G03*
X12344000Y-8346000I0J5000D01*
G01*
X14142498Y-10711735D02*
X14142498Y-10761735D01*
X10949000Y-8856000D02*
G75*
G03*
X10944000Y-8861000I0J-5000D01*
G01*
X10439000Y-10766000D02*
G75*
G03*
X10434000Y-10761000I-5000J0D01*
G01*
X16659000Y-8346000D02*
G75*
G03*
X16664000Y-8351000I5000J0D01*
G01*
X24026376Y-4817064D02*
X24026376Y-12387064D01*
X8529000Y-6446000D02*
G75*
G03*
X8534000Y-6441000I0J5000D01*
G01*
X12849000Y-8346000D02*
X12849000Y-6956000D01*
X10944000Y-8346000D02*
X10944000Y-6956000D01*
X14754000Y-10251000D02*
G75*
G03*
X14759000Y-10256000I5000J0D01*
G01*
X6143251Y-12412064D02*
X5001376Y-12412064D01*
X5956669Y-4487100D02*
G75*
G03*
X6156669Y-4487100I100000J0D01*
G01*
X5234000Y-8856000D02*
G75*
G03*
X5229000Y-8861000I0J-5000D01*
G01*
X5234000Y-8856000D02*
X6624000Y-8856000D01*
X8534000Y-5051000D02*
X8534000Y-6441000D01*
X19964000Y-10766000D02*
G75*
G03*
X19959000Y-10761000I-5000J0D01*
G01*
X22379000Y-6951000D02*
G75*
G03*
X22374000Y-6956000I0J-5000D01*
G01*
X21864000Y-8351000D02*
G75*
G03*
X21869000Y-8346000I0J5000D01*
G01*
X10439000Y-8861000D02*
X10439000Y-10251000D01*
X22374000Y-6441000D02*
X22374000Y-5051000D01*
X6968208Y-13109039D02*
G75*
G03*
X7001541Y-13132610I25000J0D01*
G01*
X22374000Y-8346000D02*
G75*
G03*
X22379000Y-8351000I5000J0D01*
G01*
X16664000Y-5046000D02*
G75*
G03*
X16659000Y-5051000I0J-5000D01*
G01*
X18054000Y-8351000D02*
G75*
G03*
X18059000Y-8346000I0J5000D01*
G01*
X23774000Y-5051000D02*
G75*
G03*
X23769000Y-5046000I-5000J0D01*
G01*
X12849000Y-6441000D02*
G75*
G03*
X12854000Y-6446000I5000J0D01*
G01*
X9039000Y-10251000D02*
X9039000Y-8861000D01*
X7139000Y-6951000D02*
G75*
G03*
X7134000Y-6956000I0J-5000D01*
G01*
X7282933Y-12657328D02*
X7340795Y-12557808D01*
X18564000Y-10251000D02*
G75*
G03*
X18569000Y-10256000I5000J0D01*
G01*
X13609898Y-10661735D02*
X14092498Y-10661735D01*
X8529000Y-10256000D02*
G75*
G03*
X8534000Y-10251000I0J5000D01*
G01*
X18058997Y-10766823D02*
X18059000Y-12156000D01*
X6450959Y-4419755D02*
G75*
G03*
X6190002Y-4109976I-394290J-67345D01*
G01*
X10944000Y-12156000D02*
X10943982Y-10766725D01*
X12854000Y-8856000D02*
X14244000Y-8856000D01*
X9039000Y-12156000D02*
X9039000Y-10766000D01*
X22379000Y-6951000D02*
X23769000Y-6951000D01*
X16149000Y-6446000D02*
G75*
G03*
X16154000Y-6441000I0J5000D01*
G01*
X22685588Y-12567276D02*
X22776993Y-12483644D01*
X6551099Y-4591620D02*
X6652839Y-4688700D01*
X10434000Y-8351000D02*
G75*
G03*
X10439000Y-8346000I0J5000D01*
G01*
X20474000Y-6951000D02*
G75*
G03*
X20469000Y-6956000I0J-5000D01*
G01*
X18564000Y-8346000D02*
G75*
G03*
X18569000Y-8351000I5000J0D01*
G01*
X9039000Y-8346000D02*
G75*
G03*
X9044000Y-8351000I5000J0D01*
G01*
X14758982Y-10761717D02*
G75*
G03*
X14753982Y-10766717I0J-5000D01*
G01*
X21864000Y-12161000D02*
X20474000Y-12161000D01*
X14244000Y-8351000D02*
G75*
G03*
X14249000Y-8346000I0J5000D01*
G01*
X5229000Y-10251000D02*
X5229000Y-8861000D01*
X5234000Y-6951000D02*
X6624000Y-6951000D01*
X22379000Y-10761000D02*
X23769000Y-10761000D01*
X14759000Y-5046000D02*
X16149000Y-5046000D01*
X10949000Y-5046000D02*
G75*
G03*
X10944000Y-5051000I0J-5000D01*
G01*
X5229000Y-8346000D02*
G75*
G03*
X5234000Y-8351000I5000J0D01*
G01*
X10434000Y-12161000D02*
G75*
G03*
X10439000Y-12156000I0J5000D01*
G01*
X18569000Y-10761000D02*
X19959000Y-10761000D01*
X20469000Y-6441000D02*
X20469000Y-5051000D01*
X14914898Y-10661735D02*
X15637400Y-10661735D01*
X16154000Y-5051000D02*
X16154000Y-6441000D01*
X21744467Y-12683683D02*
X21680701Y-12568041D01*
X16154000Y-6956000D02*
G75*
G03*
X16149000Y-6951000I-5000J0D01*
G01*
X20474000Y-10761000D02*
G75*
G03*
X20469000Y-10766000I0J-5000D01*
G01*
D11*
X5228995Y-13449516D02*
X5228995Y-13249516D01*
X5276614Y-13249516D01*
X5305186Y-13259040D01*
X5324233Y-13278088D01*
X5333757Y-13297135D01*
X5343281Y-13335230D01*
X5343281Y-13363802D01*
X5333757Y-13401897D01*
X5324233Y-13420945D01*
X5305186Y-13439992D01*
X5276614Y-13449516D01*
X5228995Y-13449516D01*
X5428995Y-13449516D02*
X5428995Y-13316183D01*
X5428995Y-13354278D02*
X5438519Y-13335230D01*
X5448043Y-13325707D01*
X5467090Y-13316183D01*
X5486138Y-13316183D01*
X5552805Y-13449516D02*
X5552805Y-13316183D01*
X5552805Y-13249516D02*
X5543281Y-13259040D01*
X5552805Y-13268564D01*
X5562328Y-13259040D01*
X5552805Y-13249516D01*
X5552805Y-13268564D01*
X5676614Y-13449516D02*
X5657566Y-13439992D01*
X5648043Y-13420945D01*
X5648043Y-13249516D01*
X5781376Y-13449516D02*
X5762328Y-13439992D01*
X5752805Y-13420945D01*
X5752805Y-13249516D01*
X6009947Y-13449516D02*
X6009947Y-13249516D01*
X6076614Y-13392373D01*
X6143281Y-13249516D01*
X6143281Y-13449516D01*
X6324233Y-13449516D02*
X6324233Y-13344754D01*
X6314709Y-13325707D01*
X6295662Y-13316183D01*
X6257566Y-13316183D01*
X6238519Y-13325707D01*
X6324233Y-13439992D02*
X6305186Y-13449516D01*
X6257566Y-13449516D01*
X6238519Y-13439992D01*
X6228995Y-13420945D01*
X6228995Y-13401897D01*
X6238519Y-13382850D01*
X6257566Y-13373326D01*
X6305186Y-13373326D01*
X6324233Y-13363802D01*
X6419471Y-13316183D02*
X6419471Y-13516183D01*
X6419471Y-13325707D02*
X6438519Y-13316183D01*
X6476614Y-13316183D01*
X6495662Y-13325707D01*
X6505186Y-13335230D01*
X6514709Y-13354278D01*
X6514709Y-13411421D01*
X6505186Y-13430469D01*
X6495662Y-13439992D01*
X6476614Y-13449516D01*
X6438519Y-13449516D01*
X6419471Y-13439992D01*
X6600424Y-13430469D02*
X6609947Y-13439992D01*
X6600424Y-13449516D01*
X6590900Y-13439992D01*
X6600424Y-13430469D01*
X6600424Y-13449516D01*
X6600424Y-13325707D02*
X6609947Y-13335230D01*
X6600424Y-13344754D01*
X6590900Y-13335230D01*
X6600424Y-13325707D01*
X6600424Y-13344754D01*
M02*
